<?xml version="1.0" encoding="utf-8"?>
<!-- Generator: Adobe Illustrator 22.1.0, SVG Export Plug-In . SVG Version: 6.00 Build 0)  -->
<svg version="1.1" id="Layer_1" xmlns="http://www.w3.org/2000/svg" xmlns:xlink="http://www.w3.org/1999/xlink" x="0px" y="0px"
	 viewBox="0 0 325.5 89.3" style="enable-background:new 0 0 325.5 89.3;" xml:space="preserve">
<style type="text/css">
	.st0{fill:#6C966D;}
	.st1{fill:#90CD93;}
	.st2{fill:#50A2BC;}
	.st3{fill:#63C8F2;}
	.st4{fill:#4E4072;}
	.st5{fill:#745AA6;}
	.st6{fill:#C9BC60;}
	.st7{fill:#FEF279;}
</style>
<g>
	<g id="g">
		<path class="st0" d="M17,89.3V78.7h42.6V68H17V57.4H6.3V36.1H17V25.5h63.8v53.2H70.2v10.6H17z M27.6,57.4h31.9V36.1H27.6V57.4z"/>
		<path class="st1" d="M10.6,85.1V74.5h42.6V63.8H10.6V53.2H0V31.9h10.6V21.3h63.8v53.2H63.8v10.6H10.6z M21.3,53.2h31.9V31.9H21.3
			V53.2z"/>
	</g>
	<g id="d1">
		<path class="st2" d="M102.1,78.7V68H91.4V36.1h10.6V25.5h42.6V4.2h21.3v74.5H102.1z M112.7,68h31.9V36.1h-31.9V68z"/>
		<path class="st3" d="M95.8,74.5V63.8H85.1V31.9h10.6V21.3h42.6V0h21.3v74.5H95.8z M106.4,63.8h31.9V31.9h-31.9V63.8z"/>
	</g>
	<g id="d2">
		<path class="st4" d="M187.2,78.7V68h-10.6V36.1h10.6V25.5h42.6V4.2H251v74.5H187.2z M197.8,68h31.9V36.1h-31.9V68z"/>
		<path class="st5" d="M180.9,74.5V63.8h-10.6V31.9h10.6V21.3h42.6V0h21.3v74.5H180.9z M191.5,63.8h31.9V31.9h-31.9V63.8z"/>
	</g>
	<g id="bracket1">
		<path class="st6" d="M304.2,78.7V68h-10.6V57.4H283V25.5h10.6V14.8h10.6V4.2h21.3v10.6h-10.6v10.6h-10.6v31.9h10.6V68h10.6v10.6
			H304.2z"/>
		<path class="st7" d="M297.9,74.5V63.8h-10.6V53.2h-10.6V21.3h10.6V10.6h10.6V0h21.3v10.6h-10.6v10.6h-10.6v31.9h10.6v10.6h10.6
			v10.6H297.9z"/>
	</g>
</g>
</svg>
