<svg version="1" xmlns="http://www.w3.org/2000/svg" viewBox="0 0 400 89"><path d="M17 89V79h43V68H17V57H6V36h11V26h64v53H70v10H17zm11-32h32V36H28v21z" fill="#6c966d"/><path d="M11 85V75h42V64H11V53H0V32h11V21h63v54H64v10H11zm10-32h32V32H21v21z" fill="#90cd93"/><path d="M102 79V68H91V36h11V26h43V4h21v75h-64zm11-11h32V36h-32v32z" fill="#50a2bc"/><path d="M96 75V64H85V32h11V21h42V0h22v75H96zm10-11h32V32h-32v32z" fill="#63c8f2"/><path d="M187 79V68h-10V36h10V26h43V4h21v75h-64zm11-11h32V36h-32v32z" fill="#4e4072"/><path d="M181 75V64h-11V32h11V21h43V0h21v75h-64zm11-11h31V32h-31v32z" fill="#745aa6"/><g><path d="M304 79V68h-10V57h-11V26h11V15h10V4h22v11h-11v10h-11v32h11v11h11v11h-22z" fill="#c9bc60"/><path d="M298 75V64h-11V53h-10V21h10V11h11V0h21v11h-10v10h-11v32h11v11h10v10h-21z" fill="#fef279"/></g><g><path d="M357 79V68h11V57h11V26h-11V15h-11V4h22v11h10v10h11v32h-11v11h-10v11h-22z" fill="#b85555"/><path d="M351 75V64h11V53h10V21h-10V11h-11V0h21v11h11v10h11v32h-11v11h-11v10h-21z" fill="#ed6f6b"/></g></svg>